Coordinates
version=1
nRows=10
nColumns=22
inDegrees=yes

Units are S.I. units (second, meters, Newtons, ...)
If the header above contains a line with 'inDegrees', this indicates whether rotational values are in degrees (yes) or radians (no).

endheader
time	pelvis_tilt	pelvis_list	pelvis_rotation	pelvis_tx	pelvis_ty	pelvis_tz	hip_flexion_r	hip_adduction_r	hip_rotation_r	knee_angle_r	ankle_angle_r	subtalar_angle_r	hip_flexion_l	hip_adduction_l	hip_rotation_l	knee_angle_l	ankle_angle_l	subtalar_angle_l	lumbar_extension	lumbar_bending	lumbar_rotation
      2.91000000	      4.39832667	      4.45015226	    -42.20843914	     -0.22676819	      1.00216278	     -0.28515520	     11.46000382	    -10.45247939	     -4.54367146	    -60.16610363	      5.38196364	     -0.10584463	      8.05196397	      5.13830975	     -4.05984719	    -15.15315481	      8.29306694	      0.89915151	     -5.38205221	     -9.88599963	      1.53098252
      2.92000000	      4.34537718	      4.26264790	    -42.64251323	     -0.22017690	      1.00294132	     -0.28114118	     12.82664052	    -10.22984297	     -4.77365810	    -60.65965845	      6.19507200	     -0.69097985	      7.32069956	      5.03861703	     -4.45790058	    -14.85073805	      8.62195059	      0.84219177	     -5.60697939	     -9.64684151	      1.15380295
      2.93000000	      4.28467265	      4.05789060	    -43.01728181	     -0.21366661	      1.00371394	     -0.27713939	     14.11807655	     -9.95626883	     -5.08163580	    -60.92116797	      6.93667628	     -1.01558790	      6.57611950	      4.92738605	     -4.82847540	    -14.52863770	      8.93361153	      0.81120816	     -5.84885048	     -9.38893031	      0.72114863
      2.94000000	      4.20221471	      3.87099183	    -43.34278778	     -0.20712406	      1.00442747	     -0.27311889	     15.35960765	     -9.68297845	     -5.49935942	    -60.94843004	      7.59956192	     -1.18262603	      5.81965844	      4.82969949	     -5.13250457	    -14.13083332	      9.21278017	      0.79711928	     -6.04257536	     -9.12471508	      0.29496284
      2.95000000	      4.10214851	      3.68759436	    -43.62612328	     -0.20064256	      1.00505864	     -0.26909328	     16.54937890	     -9.39145421	     -5.99451739	    -60.76634278	      8.15835983	     -1.32013857	      5.08971013	      4.72269449	     -5.44458491	    -13.74995243	      9.48771785	      0.79857842	     -6.22318350	     -8.84902336	     -0.16699983
      2.96000000	      3.98043698	      3.48494777	    -43.84204237	     -0.19416048	      1.00564221	     -0.26508376	     17.65369430	     -9.08504743	     -6.61213013	    -60.36319235	      8.59197235	     -1.42815864	      4.36387394	      4.59201386	     -5.70087041	    -13.37385043	      9.77512868	      0.83820632	     -6.40709278	     -8.53209291	     -0.67905103
      2.97000000	      3.86769728	      3.30822593	    -44.02331597	     -0.18766621	      1.00613577	     -0.26103905	     18.69640525	     -8.82587424	     -7.30732330	    -59.77346203	      8.99092439	     -1.44307860	      3.63457217	      4.49457565	     -5.89775519	    -12.97161262	     10.02657362	      0.87759717	     -6.57225259	     -8.24461519	     -1.18511224
      2.98000000	      3.75273483	      3.13439121	    -44.16841843	     -0.18117655	      1.00654579	     -0.25696226	     19.66982163	     -8.58874137	     -8.07892228	    -59.00569193	      9.33760511	     -1.42348377	      2.90489047	      4.40030380	     -6.05531219	    -12.56296731	     10.27159821	      0.91408917	     -6.73307557	     -7.95625889	     -1.69405217
      2.99000000	      3.63744991	      2.96383228	    -44.28834393	     -0.17469647	      1.00686631	     -0.25283800	     20.57215610	     -8.37299801	     -8.91318759	    -58.06642977	      9.65872953	     -1.38700756	      2.18116088	      4.30874335	     -6.18144707	    -12.16390843	     10.51719119	      0.94024788	     -6.88802030	     -7.66726289	     -2.20466241
      3.00000000	      3.52595814	      2.79112115	    -44.39027151	     -0.16825641	      1.00711402	     -0.24862442	     21.39325277	     -8.17120387	     -9.79869487	    -56.95803930	      9.95420388	     -1.33607375	      1.45193405	      4.21532069	     -6.27723896	    -11.76658295	     10.76026918	      0.95906988	     -7.04451500	     -7.38561211	     -2.69609335
